<?xml version="1.0" standalone="no"?>
<!DOCTYPE svg PUBLIC "-//W3C//DTD SVG 20010904//EN"
 "http://www.w3.org/TR/2001/REC-SVG-20010904/DTD/svg10.dtd">
<svg version="1.0" xmlns="http://www.w3.org/2000/svg"
 width="497.000000pt" height="432.000000pt" viewBox="0 0 497.000000 432.000000"
 preserveAspectRatio="xMidYMid meet">

<g transform="translate(0.000000,432.000000) scale(0.100000,-0.100000)"
fill="#000000" stroke="none">
<path d="M2733 3453 c-16 -21 -74 -96 -131 -166 -56 -70 -102 -132 -102 -137
0 -10 312 -377 338 -397 12 -10 97 -13 346 -13 l331 0 26 43 c14 23 68 111
120 196 l93 154 -184 178 -185 179 -312 0 -313 0 -27 -37z"/>
<path d="M3885 3092 c-11 -2 -30 -21 -44 -45 -13 -23 -66 -113 -118 -201 l-95
-158 94 -97 c116 -119 219 -228 288 -303 l53 -58 351 0 351 1 83 204 c46 113
86 214 89 225 4 15 -7 31 -43 63 -26 23 -121 107 -209 187 -88 80 -169 152
-179 160 -16 12 -72 16 -310 20 -160 3 -300 4 -311 2z"/>
<path d="M281 2428 c-130 -128 -237 -236 -239 -239 -3 -6 22 -60 152 -332 31
-65 63 -135 72 -155 8 -20 20 -40 27 -44 7 -4 191 -8 409 -8 l397 0 35 43 c37
44 382 464 397 483 8 9 -116 212 -266 434 l-31 45 -358 3 -358 2 -237 -232z"/>
<path d="M2838 2633 c-42 -48 -302 -430 -302 -445 -1 -9 88 -133 198 -277
l199 -261 371 0 c283 0 376 3 388 13 9 6 73 126 143 265 l126 252 -218 235
-218 234 -336 0 c-308 1 -337 0 -351 -16z"/>
<path d="M1558 2003 c-56 -71 -153 -191 -215 -268 -62 -77 -113 -142 -113
-145 1 -3 78 -140 173 -305 l173 -300 426 -3 426 -2 48 77 c184 302 297 490
309 514 15 27 14 29 -138 230 -83 112 -172 231 -195 266 l-44 63 -374 0 -373
0 -103 -127z"/>
</g>
</svg>
